<svg xmlns="http://www.w3.org/2000/svg" viewBox="0 0 256 301"><path fill="#3DDC84" d="M0 261.134c0 17.177 14.075 31.252 31.252 31.252h9.919v57.856c0 13.575 11.097 24.672 24.671 24.672 13.574 0 24.671-11.097 24.671-24.672v-57.856h55.974v57.856c0 13.575 11.097 24.672 24.671 24.672 13.574 0 24.671-11.097 24.671-24.672v-57.856h9.919c17.177 0 31.252-14.075 31.252-31.252V109.44H0v151.694zM206.52 20.651l23.22-40.403c1.313-2.276.526-5.196-1.75-6.51a4.746 4.746 0 00-6.51 1.75l-23.22 40.403c-17.877-7.624-37.755-11.874-58.736-11.874s-40.859 4.25-58.736 11.874l-23.22-40.403a4.753 4.753 0 00-6.51-1.75c-2.276 1.313-3.063 4.234-1.75 6.51l23.22 40.403C35.754 41.67 5.25 79.3 0 124.795h256c-5.25-45.494-35.754-83.124-49.48-104.144zM77.296 77.28c-7.1 0-12.865-5.765-12.865-12.865S70.196 51.55 77.296 51.55s12.865 5.765 12.865 12.865S84.396 77.28 77.296 77.28zm101.408 0c-7.1 0-12.865-5.765-12.865-12.865s5.765-12.865 12.865-12.865 12.865 5.765 12.865 12.865-5.765 12.865-12.865 12.865z"/></svg>
