<svg xmlns="http://www.w3.org/2000/svg" viewBox="0 0 256 289"><path fill="#339933" d="M128 288.464c-3.975 0-7.685-1.06-11.13-2.915l-35.247-20.936c-5.3-2.915-2.65-3.975-1.06-4.505 7.155-2.385 8.48-2.915 15.9-7.155.796-.53 1.856-.265 2.65.265l27.032 16.166c1.06.53 2.385.53 3.18 0l105.74-61.217c1.06-.53 1.59-1.59 1.59-2.915V94.027c0-1.325-.53-2.385-1.59-2.915L128.265 29.96c-1.06-.53-2.385-.53-3.18 0L19.346 91.112c-1.06.53-1.59 1.855-1.59 2.915v122.17c0 1.06.53 2.385 1.59 2.915l28.887 16.695c15.635 7.95 25.44-1.325 25.44-10.6V106.218c0-1.59 1.325-3.18 2.915-3.18h12.72c1.59 0 2.915 1.325 2.915 3.18V225.21c0 20.936-11.395 32.86-31.27 32.86-6.095 0-10.865 0-24.38-6.625L9.275 235.28C3.445 232.1 0 225.74 0 219.117V96.947c0-6.625 3.445-12.985 9.275-16.166L118.87 19.36c5.565-3.18 13.25-3.18 18.815 0l109.715 61.42c5.83 3.18 9.275 9.54 9.275 16.166v122.17c0 6.625-3.445 12.985-9.275 16.166l-109.715 61.42c-3.445 1.59-7.42 2.385-11.13 2.385zm33.92-84.006c-46.377 0-55.917-21.2-55.917-39.22 0-1.59 1.325-3.18 2.915-3.18h12.985c1.59 0 2.915 1.06 2.915 2.65 1.855 12.72 7.685 18.815 37.367 18.815 22.79 0 32.595-5.3 32.595-17.49 0-7.155-2.65-12.455-38.957-15.9-30.21-2.915-48.762-9.54-48.762-33.655 0-22.26 18.815-35.51 50.35-35.51 35.51 0 52.97 12.19 55.122 38.692.265 1.59-1.06 3.18-2.65 3.18h-13.25c-1.325 0-2.65-1.06-2.915-2.385-3.445-15.37-11.925-20.406-36.307-20.406-26.767 0-29.947 9.275-29.947 16.43 0 8.48 3.71 11.13 37.897 15.9 33.92 4.77 49.557 11.395 49.557 33.39 0 24.115-20.142 37.9-55.122 37.9z"/></svg>
