<svg xmlns="http://www.w3.org/2000/svg" viewBox="0 0 256 257"><path fill="#FFFFFF" d="M0 256.873V0h256v256.873H0zm128.43-115.93c16.375 0 33.217 4.91 43.03 19.636l22.428-13.605c-14.254-22.66-39.759-34.46-65.926-34.46-45.256 0-76.27 32.098-76.27 76.032 0 43.702 30.78 76.032 76.27 76.032 26.4 0 51.905-11.8 65.926-34.46l-22.428-13.605c-9.813 14.726-26.655 19.636-43.03 19.636-28.752 0-47.706-21.726-47.706-47.603 0-25.877 18.954-47.603 47.706-47.603zm81.7-64.944h-27.875v104.977h27.875V75.999z"/></svg>
